<svg width="542" height="595" viewBox="0 0 542 595" fill="none" xmlns="http://www.w3.org/2000/svg">
<path d="M0 50C0 22.3858 22.3858 0 50 0H534C538.418 0 542 3.58172 542 8V544.316C542 571.931 519.614 594.316 492 594.316H7.99999C3.58172 594.316 0 590.735 0 586.316V50Z" fill="#212121"/>
<path d="M356.414 209.085L355.075 178.56C355.06 178.207 354.954 177.864 354.769 177.563C354.585 177.262 354.326 177.013 354.018 176.84C353.71 176.666 353.363 176.575 353.009 176.573C352.656 176.571 352.308 176.66 351.998 176.83L308.989 200.483C308.029 199.401 306.772 198.624 305.375 198.248C303.977 197.873 302.501 197.915 301.127 198.37C299.753 198.824 298.543 199.672 297.646 200.807C296.749 201.942 296.204 203.315 296.079 204.757L282.485 206.763H264.646L244.023 203.721L201.122 180.132C201.259 179.566 201.328 178.986 201.327 178.404C201.326 177.033 200.945 175.689 200.225 174.522C199.506 173.354 198.477 172.41 197.252 171.793C196.028 171.176 194.656 170.91 193.29 171.027C191.924 171.143 190.617 171.636 189.514 172.451C188.412 173.266 187.557 174.37 187.045 175.642C186.533 176.914 186.384 178.303 186.614 179.655C186.845 181.006 187.446 182.268 188.35 183.298C189.255 184.328 190.428 185.087 191.738 185.491L191.005 202.162C189.278 202.642 187.784 203.733 186.8 205.232C185.816 206.73 185.408 208.535 185.654 210.311C185.899 212.087 186.78 213.713 188.134 214.889C189.487 216.065 191.221 216.709 193.014 216.704C193.325 216.705 193.636 216.684 193.945 216.643L209.462 250.146L200.721 289.304C200.628 289.713 200.662 290.141 200.818 290.53C200.974 290.92 201.246 291.252 201.596 291.484L238.596 316.138L256.799 352.178C256.972 352.521 257.237 352.809 257.565 353.01C257.892 353.212 258.269 353.317 258.654 353.316H288.467C288.852 353.318 289.229 353.211 289.557 353.01C289.884 352.808 290.149 352.519 290.322 352.175L308.522 316.138L345.522 291.481C345.87 291.247 346.139 290.914 346.295 290.524C346.451 290.135 346.487 289.708 346.397 289.299L339.091 256.553C340.197 255.997 341.147 255.172 341.852 254.153C342.558 253.135 342.996 251.956 343.128 250.724C343.259 249.492 343.08 248.247 342.605 247.103C342.131 245.958 341.377 244.951 340.413 244.174L356.223 210.047C356.363 209.746 356.428 209.416 356.414 209.085V209.085ZM303.457 201.661C304.197 201.661 304.921 201.88 305.537 202.292C306.152 202.703 306.632 203.288 306.915 203.972C307.199 204.656 307.273 205.409 307.128 206.135C306.984 206.861 306.627 207.528 306.104 208.052C305.58 208.575 304.913 208.932 304.187 209.076C303.461 209.221 302.708 209.146 302.024 208.863C301.34 208.58 300.755 208.1 300.344 207.484C299.932 206.869 299.713 206.145 299.713 205.404C299.714 204.412 300.108 203.46 300.81 202.758C301.512 202.056 302.464 201.661 303.457 201.661V201.661ZM193.014 213.038C192.273 213.039 191.549 212.82 190.933 212.409C190.317 211.997 189.837 211.413 189.553 210.729C189.269 210.044 189.195 209.291 189.339 208.565C189.484 207.839 189.84 207.171 190.364 206.647C190.888 206.124 191.555 205.767 192.281 205.623C193.008 205.478 193.761 205.553 194.445 205.836C195.129 206.12 195.714 206.6 196.125 207.216C196.536 207.832 196.755 208.557 196.755 209.297C196.754 210.289 196.359 211.24 195.658 211.941C194.956 212.643 194.006 213.037 193.014 213.038V213.038ZM197.359 215.292C198.51 214.458 199.398 213.309 199.914 211.984C200.431 210.659 200.555 209.214 200.271 207.82C199.988 206.427 199.309 205.144 198.315 204.126C197.322 203.109 196.057 202.398 194.671 202.081L195.396 185.669C195.824 185.583 196.243 185.458 196.647 185.295L224.452 224.937L212.07 247.04L197.359 215.292ZM306.142 313.333C305.843 313.531 305.601 313.804 305.441 314.124L287.489 349.641H259.631L241.687 314.117C241.525 313.795 241.282 313.52 240.981 313.32L210.618 293.087L236.69 300.046L260.457 320.458L260.245 330.895C260.238 331.222 260.309 331.545 260.451 331.84C260.592 332.134 260.801 332.391 261.061 332.589L272.302 341.181C272.664 341.457 273.107 341.606 273.563 341.606C274.018 341.606 274.461 341.457 274.824 341.181L286.065 332.591C286.324 332.393 286.533 332.136 286.675 331.842C286.817 331.548 286.887 331.224 286.881 330.898L286.668 320.458L310.438 300.046L336.503 293.089L306.142 313.333ZM255.086 286.889L239.715 285.487L234.701 275.58L247.621 276.284L255.33 284.218L255.086 286.889ZM263.925 330.167L264.089 322.255H283.035L283.198 330.167L273.56 337.53L263.925 330.167ZM291.783 284.226L299.493 276.291L312.413 275.587L307.401 285.494L292.027 286.889L291.783 284.226ZM342.561 288.94L309.534 297.759L309.045 298.003L294.227 310.75L292.374 290.54L308.351 289.074C308.784 289.036 309.2 288.887 309.56 288.643C309.92 288.399 310.211 288.067 310.406 287.679L317.034 274.585C317.189 274.279 317.26 273.938 317.241 273.596C317.223 273.253 317.114 272.922 316.927 272.634C316.739 272.347 316.479 272.114 316.174 271.959C315.868 271.804 315.526 271.732 315.184 271.751L298.87 272.645C298.222 272.677 297.611 272.954 297.159 273.42L288.797 282.026C288.538 282.292 288.34 282.61 288.216 282.959C288.093 283.309 288.047 283.681 288.081 284.05L290.806 313.68L285.087 318.589H262.029L256.31 313.68L259.038 284.052C259.072 283.683 259.026 283.311 258.903 282.961C258.78 282.611 258.582 282.292 258.324 282.026L249.962 273.42C249.51 272.955 248.899 272.678 248.251 272.645L231.942 271.758C231.599 271.74 231.258 271.811 230.952 271.967C230.646 272.122 230.387 272.354 230.199 272.642C230.012 272.929 229.903 273.26 229.884 273.603C229.865 273.945 229.937 274.287 230.092 274.593L236.719 287.686C236.915 288.074 237.206 288.406 237.566 288.65C237.925 288.895 238.341 289.043 238.774 289.081L254.751 290.548L252.899 310.757L238.066 298.02L237.577 297.776L204.558 288.94L213.174 250.329L213.272 249.892L226.881 225.599C227.016 225.358 227.08 225.084 227.067 224.808C227.053 224.532 226.961 224.266 226.803 224.04L198.742 184.02C198.979 183.819 199.203 183.603 199.411 183.372L242.54 207.09L242.828 207.249L264.372 210.426H282.741L296.67 208.373C297.353 209.931 298.551 211.206 300.063 211.984C301.574 212.763 303.308 212.998 304.972 212.649C306.637 212.301 308.13 211.39 309.203 210.071C310.275 208.751 310.861 207.102 310.861 205.402C310.861 204.843 310.797 204.285 310.67 203.74L349.454 182.412L324.573 217.953C323.555 217.62 322.477 217.512 321.413 217.636C320.349 217.76 319.325 218.114 318.411 218.672C317.497 219.23 316.715 219.98 316.118 220.869C315.522 221.759 315.126 222.768 314.957 223.825C314.788 224.883 314.851 225.964 315.14 226.995C315.43 228.027 315.94 228.983 316.634 229.798C317.329 230.613 318.192 231.268 319.164 231.717C320.137 232.166 321.195 232.399 322.266 232.4C322.829 232.401 323.391 232.336 323.94 232.207L330.799 244.452C329.706 245.441 328.932 246.733 328.578 248.164C328.224 249.595 328.305 251.099 328.811 252.484C329.318 253.869 330.226 255.07 331.419 255.936C332.613 256.801 334.037 257.29 335.511 257.34L342.561 288.94ZM335.77 253.682C335.029 253.682 334.305 253.462 333.69 253.051C333.074 252.64 332.594 252.055 332.311 251.371C332.027 250.687 331.953 249.934 332.098 249.208C332.242 248.482 332.599 247.815 333.122 247.291C333.646 246.767 334.313 246.411 335.039 246.266C335.765 246.122 336.518 246.196 337.202 246.479C337.886 246.763 338.471 247.243 338.882 247.858C339.294 248.474 339.513 249.198 339.513 249.938C339.513 250.931 339.118 251.883 338.416 252.585C337.714 253.287 336.762 253.681 335.77 253.682V253.682ZM337.079 242.651C336.648 242.57 336.209 242.53 335.77 242.531C334.768 242.53 333.777 242.734 332.857 243.13L326.205 231.259C327.218 230.623 328.062 229.75 328.665 228.716C329.267 227.683 329.61 226.518 329.663 225.323C329.717 224.127 329.48 222.937 328.972 221.853C328.465 220.77 327.702 219.825 326.75 219.101L351.627 183.57L352.734 208.857L337.079 242.651Z" fill="#DBEAFE"/>
<path d="M213.777 379.236V407.316H206.937V379.236H213.777ZM247.214 384.756C249.987 384.756 252.187 385.596 253.814 387.276C255.467 388.956 256.294 391.29 256.294 394.276V407.316H249.494V395.196C249.494 393.756 249.107 392.65 248.334 391.876C247.587 391.076 246.547 390.676 245.214 390.676C243.881 390.676 242.827 391.076 242.054 391.876C241.307 392.65 240.934 393.756 240.934 395.196V407.316H234.134V395.196C234.134 393.756 233.747 392.65 232.974 391.876C232.227 391.076 231.187 390.676 229.854 390.676C228.521 390.676 227.467 391.076 226.694 391.876C225.947 392.65 225.574 393.756 225.574 395.196V407.316H218.734V384.996H225.574V387.796C226.267 386.863 227.174 386.13 228.294 385.596C229.414 385.036 230.681 384.756 232.094 384.756C233.774 384.756 235.267 385.116 236.574 385.836C237.907 386.556 238.947 387.583 239.694 388.916C240.467 387.69 241.521 386.69 242.854 385.916C244.187 385.143 245.641 384.756 247.214 384.756ZM259.718 396.116C259.718 393.823 260.144 391.81 260.998 390.076C261.878 388.343 263.064 387.01 264.558 386.076C266.051 385.143 267.718 384.676 269.558 384.676C271.131 384.676 272.504 384.996 273.678 385.636C274.878 386.276 275.798 387.116 276.438 388.156V384.996H283.278V407.316H276.438V404.156C275.771 405.196 274.838 406.036 273.638 406.676C272.464 407.316 271.091 407.636 269.518 407.636C267.704 407.636 266.051 407.17 264.558 406.236C263.064 405.276 261.878 403.93 260.998 402.196C260.144 400.436 259.718 398.41 259.718 396.116ZM276.438 396.156C276.438 394.45 275.958 393.103 274.998 392.116C274.064 391.13 272.918 390.636 271.558 390.636C270.198 390.636 269.038 391.13 268.078 392.116C267.144 393.076 266.678 394.41 266.678 396.116C266.678 397.823 267.144 399.183 268.078 400.196C269.038 401.183 270.198 401.676 271.558 401.676C272.918 401.676 274.064 401.183 274.998 400.196C275.958 399.21 276.438 397.863 276.438 396.156ZM296.706 384.676C298.279 384.676 299.653 384.996 300.826 385.636C302.026 386.276 302.946 387.116 303.586 388.156V384.996H310.426V407.276C310.426 409.33 310.013 411.183 309.186 412.836C308.386 414.516 307.146 415.85 305.466 416.836C303.813 417.823 301.746 418.316 299.266 418.316C295.959 418.316 293.279 417.53 291.226 415.956C289.173 414.41 287.999 412.303 287.706 409.636H294.466C294.679 410.49 295.186 411.156 295.986 411.636C296.786 412.143 297.773 412.396 298.946 412.396C300.359 412.396 301.479 411.983 302.306 411.156C303.159 410.356 303.586 409.063 303.586 407.276V404.116C302.919 405.156 301.999 406.01 300.826 406.676C299.653 407.316 298.279 407.636 296.706 407.636C294.866 407.636 293.199 407.17 291.706 406.236C290.213 405.276 289.026 403.93 288.146 402.196C287.293 400.436 286.866 398.41 286.866 396.116C286.866 393.823 287.293 391.81 288.146 390.076C289.026 388.343 290.213 387.01 291.706 386.076C293.199 385.143 294.866 384.676 296.706 384.676ZM303.586 396.156C303.586 394.45 303.106 393.103 302.146 392.116C301.213 391.13 300.066 390.636 298.706 390.636C297.346 390.636 296.186 391.13 295.226 392.116C294.293 393.076 293.826 394.41 293.826 396.116C293.826 397.823 294.293 399.183 295.226 400.196C296.186 401.183 297.346 401.676 298.706 401.676C300.066 401.676 301.213 401.183 302.146 400.196C303.106 399.21 303.586 397.863 303.586 396.156ZM336.415 395.796C336.415 396.436 336.375 397.103 336.295 397.796H320.815C320.921 399.183 321.361 400.25 322.135 400.996C322.935 401.716 323.908 402.076 325.055 402.076C326.761 402.076 327.948 401.356 328.615 399.916H335.895C335.521 401.383 334.841 402.703 333.855 403.876C332.895 405.05 331.681 405.97 330.215 406.636C328.748 407.303 327.108 407.636 325.295 407.636C323.108 407.636 321.161 407.17 319.455 406.236C317.748 405.303 316.415 403.97 315.455 402.236C314.495 400.503 314.015 398.476 314.015 396.156C314.015 393.836 314.481 391.81 315.415 390.076C316.375 388.343 317.708 387.01 319.415 386.076C321.121 385.143 323.081 384.676 325.295 384.676C327.455 384.676 329.375 385.13 331.055 386.036C332.735 386.943 334.041 388.236 334.975 389.916C335.935 391.596 336.415 393.556 336.415 395.796ZM329.415 393.996C329.415 392.823 329.015 391.89 328.215 391.196C327.415 390.503 326.415 390.156 325.215 390.156C324.068 390.156 323.095 390.49 322.295 391.156C321.521 391.823 321.041 392.77 320.855 393.996H329.415Z" fill="white"/>
</svg>
